<!DOCTYPE svg PUBLIC "-//W3C//DTD SVG 1.1//EN" "http://www.w3.org/Graphics/SVG/1.1/DTD/svg11.dtd">
<!-- Uploaded to: SVG Repo, www.svgrepo.com, Transformed by: SVG Repo Mixer Tools -->
<svg fill="#000000" height="64px" width="64px" version="1.1" id="Layer_1" xmlns="http://www.w3.org/2000/svg" xmlns:xlink="http://www.w3.org/1999/xlink" viewBox="-51.2 -51.2 614.40 614.40" xml:space="preserve">
<g id="SVGRepo_bgCarrier" stroke-width="0"/>
<g id="SVGRepo_tracerCarrier" stroke-linecap="round" stroke-linejoin="round"/>
<g id="SVGRepo_iconCarrier"> <g> <g> <path d="M458.364,238.262c-4.83-5.018-11.494-7.859-18.458-7.859h-30.302v-76.8c0-14.14-11.46-25.6-25.6-25.6h-128 c-14.14,0-25.6,11.46-25.6,25.6v76.8h-14.566l14.498-202.974c0.512-7.091-1.954-14.063-6.801-19.268 c-4.847-5.205-11.622-8.158-18.731-8.158h-179.2c-7.108,0-13.892,2.953-18.739,8.158c-4.847,5.205-7.305,12.177-6.801,19.268 l25.54,357.487v101.487c0,14.14,11.46,25.6,25.6,25.6h388.702c6.963,0,13.628-2.842,18.458-7.859 c34.594-35.994,53.641-83.209,53.641-132.941S492.958,274.255,458.364,238.262z M256.005,153.602h128v76.8h-128V153.602z M25.605,25.602h179.2l-14.78,206.882c-3.123,1.34-5.982,3.285-8.38,5.786c-34.594,35.985-53.641,83.2-53.641,132.932 c0,4.301,0.333,8.542,0.614,12.8H51.205L25.605,25.602z M51.205,486.402v-76.8h80.734c5.666,27.819,17.544,53.948,34.79,76.8 H51.205z M439.907,486.402H200.103c-28.74-29.909-46.498-70.443-46.498-115.2s17.758-85.291,46.498-115.2h55.902h128h55.902 c28.74,29.909,46.498,70.443,46.498,115.2S468.647,456.493,439.907,486.402z"/> </g> </g> <g> <g> <path d="M435.205,307.202h-230.4c-14.14,0-25.6,11.46-25.6,25.6v76.8c0,14.14,11.46,25.6,25.6,25.6h230.4 c14.14,0,25.6-11.46,25.6-25.6v-76.8C460.805,318.663,449.345,307.202,435.205,307.202z M435.205,409.602h-230.4v-76.8h230.4 V409.602z"/> </g> </g> </g>
</svg>