<!DOCTYPE svg PUBLIC "-//W3C//DTD SVG 1.1//EN" "http://www.w3.org/Graphics/SVG/1.1/DTD/svg11.dtd">
<!-- Uploaded to: SVG Repo, www.svgrepo.com, Transformed by: SVG Repo Mixer Tools -->
<svg fill="#000000" height="64px" width="64px" version="1.1" id="Layer_1" xmlns="http://www.w3.org/2000/svg" xmlns:xlink="http://www.w3.org/1999/xlink" viewBox="-51.2 -51.2 614.40 614.40" xml:space="preserve">
<g id="SVGRepo_bgCarrier" stroke-width="0"/>
<g id="SVGRepo_tracerCarrier" stroke-linecap="round" stroke-linejoin="round"/>
<g id="SVGRepo_iconCarrier"> <g> <g> <path d="M177.896,273.321c-6.492-6.495-17.021-6.495-23.516,0L85.18,342.522c-6.494,6.494-6.494,17.023,0,23.517 c3.247,3.247,7.503,4.871,11.758,4.871c4.255,0,8.512-1.623,11.758-4.871l69.201-69.201 C184.39,290.344,184.39,279.815,177.896,273.321z"/> </g> </g> <g> <g> <path d="M507.133,38.145c-15.705-15.703-36.585-24.351-58.793-24.351c-22.208,0-43.089,8.648-58.792,24.352l-37.299,37.298 c-18.539-8.832-41.44-5.594-56.769,9.736L187.632,193.028c-18.54-8.832-41.442-5.593-56.77,9.736L14.623,319.003 c-19.497,19.497-19.499,51.053,0,70.551l94.068,94.068c19.449,19.448,51.1,19.45,70.551,0l116.24-116.24 c15.642-15.641,18.457-38.618,9.757-56.791l107.827-107.827c15.641-15.641,18.456-38.617,9.757-56.791l84.311-84.311 C513.624,55.171,513.626,44.638,507.133,38.145z M271.964,343.864L155.724,460.104c-6.484,6.484-17.034,6.484-23.518,0 L38.14,366.036c-6.5-6.501-6.5-17.017,0-23.517l116.24-116.24c6.501-6.5,17.017-6.5,23.518,0l94.068,94.069 C278.463,326.847,278.462,337.365,271.964,343.864z M389.548,179.247L283.723,285.072l-70.55-70.551l105.825-105.825 c6.484-6.482,17.034-6.483,23.517,0l47.033,47.033C396.045,162.229,396.047,172.746,389.548,179.247z M401.306,120.454 l-23.517-23.517l35.276-35.276c9.422-9.423,21.949-14.611,35.274-14.611c7.572,0,14.885,1.675,21.519,4.851L401.306,120.454z"/> </g> </g> </g>
</svg>